<svg width="23" height="23" viewBox="0 0 23 23" fill="none" style="vertical-align:-7" xmlns="http://www.w3.org/2000/svg">
<path d="M19.1323 7.65479H9.17759C8.23423 7.65479 7.46606 8.42295 7.46606 9.36631V16.2978C7.46606 17.2411 8.23423 18.0048 9.17759 18.0048H14.8737C14.9995 18.0048 15.1252 18.0587 15.2151 18.1485L18.0452 20.7585C18.2024 20.9112 18.4629 20.8483 18.4629 20.6282V18.3552C18.4629 18.0856 18.6336 18.0003 18.9032 18.0003H18.9481C19.8915 18.0003 20.8393 17.2411 20.8393 16.2933V9.36631C20.8438 8.41846 20.0756 7.65479 19.1323 7.65479Z" fill="#FFFFFF"/>
<path d="M7.83437 6.5541H15.8035V3.6207C15.8035 2.81211 15.1477 2.15625 14.3391 2.15625H3.6207C2.81211 2.15625 2.15625 2.81211 2.15625 3.6207V11.0418C2.15625 11.8504 2.81211 12.5062 3.6207 12.5062H6.36543V8.01855C6.36992 7.20996 7.02578 6.5541 7.83437 6.5541Z" fill="#FFFFFF"/>
</svg>
