<svg width="21" height="21" viewBox="0 0 21 21" fill="none" style="vertical-align:-7; margin-left: 10px" xmlns="http://www.w3.org/2000/svg">
<g clip-path="url(#clip0)">
<path d="M7.96403 9.21729C7.35428 9.21729 6.8739 9.75166 6.8739 10.4042C6.8739 11.0544 7.36553 11.591 7.96403 11.591C8.57265 11.591 9.05302 11.0544 9.05302 10.4042C9.0654 9.75053 8.57265 9.21729 7.96403 9.21729ZM11.8655 9.21729C11.2558 9.21729 10.7754 9.75166 10.7754 10.4042C10.7754 11.0544 11.267 11.591 11.8655 11.591C12.4741 11.591 12.9545 11.0544 12.9545 10.4042C12.9534 9.75053 12.4741 9.21729 11.8655 9.21729Z" fill="#5D7290"/>
<path d="M17.0596 0.25H2.73727C2.44889 0.250738 2.16347 0.30827 1.89733 0.419311C1.63118 0.530352 1.38951 0.692728 1.18611 0.897168C0.982715 1.10161 0.82158 1.34411 0.711903 1.61082C0.602227 1.87754 0.546158 2.16324 0.546897 2.45162V16.9011C0.546897 18.1195 1.53015 19.1027 2.73727 19.1027H14.8569L14.2888 17.1239L15.6579 18.3962L16.9505 19.5932L19.25 21.625V2.45162C19.2507 2.16324 19.1947 1.87754 19.085 1.61082C18.9753 1.34411 18.8142 1.10161 18.6108 0.897168C18.4074 0.692728 18.1657 0.530352 17.8996 0.419311C17.6334 0.30827 17.348 0.250738 17.0596 0.25ZM12.9331 14.2079C12.9331 14.2079 12.5484 13.7489 12.2289 13.3405C13.6284 12.9445 14.1628 12.0692 14.1628 12.0692C13.724 12.3572 13.3078 12.562 12.9331 12.7015C11.5693 13.2723 10.0673 13.428 8.61539 13.1492C8.07888 13.0438 7.55318 12.8895 7.04489 12.688C6.77682 12.5862 6.51629 12.4655 6.26526 12.3269C6.23264 12.3032 6.20114 12.2942 6.16964 12.2729C6.15279 12.2648 6.13783 12.2533 6.12576 12.2391C5.93339 12.1334 5.82651 12.0591 5.82651 12.0591C5.82651 12.0591 6.33951 12.9141 7.69739 13.3202C7.37676 13.7252 6.98076 14.2079 6.98076 14.2079C4.61939 14.1325 3.72277 12.5834 3.72277 12.5834C3.72277 9.14199 5.26177 6.35312 5.26177 6.35312C6.80076 5.19774 8.26439 5.23037 8.26439 5.23037L8.37126 5.35862C6.44751 5.91549 5.55989 6.75924 5.55989 6.75924C5.55989 6.75924 5.79614 6.63099 6.19101 6.44987C7.33401 5.94812 8.24189 5.80862 8.61651 5.77599C8.68064 5.76587 8.73464 5.75462 8.79876 5.75462C10.6519 5.50489 12.5362 5.85706 14.174 6.75924C14.174 6.75924 13.3291 5.95824 11.5123 5.40249L11.6619 5.23149C11.6619 5.23149 13.1266 5.19887 14.6645 6.35424C14.6645 6.35424 16.2035 9.14311 16.2035 12.5845C16.2035 12.5834 15.2956 14.1325 12.9331 14.2079Z" fill="#5D7290"/>
</g>
<defs>
<clipPath id="clip0">
<rect width="21" height="21" fill="white"/>
</clipPath>
</defs>
</svg>
