 <svg width="175" height="22" viewBox="0 0 175 22" fill="none" xmlns="http://www.w3.org/2000/svg">
<rect width="28" height="22" rx="5" fill="#242C37"/>
<rect x="8" y="6" width="12" height="9" rx="2" fill="white"/>
<mask id="mask0_16_47" style="mask-type:alpha" maskUnits="userSpaceOnUse" x="8" y="6" width="12" height="9">
<rect x="8" y="6" width="12" height="9" rx="2" fill="white"/>
</mask>
<g mask="url(#mask0_16_47)">
<rect x="8" y="6" width="12" height="9" fill="#0A17A7"/>
<path fill-rule="evenodd" clip-rule="evenodd" d="M7.45042 5.1377L12.5715 8.76459V5.4001H15.4286V8.76462L20.5497 5.1377L21.1888 6.13254L17.1399 9.0001H20V12.0001H17.1399L21.1888 14.8677L20.5497 15.8625L15.4286 12.2356V15.6001H12.5715V12.2356L7.45042 15.8625L6.81134 14.8677L10.8602 12.0001H8.00003V9.0001H10.8602L6.81134 6.13254L7.45042 5.1377Z" fill="white"/>
<path d="M16.0005 8.84958L21.4286 5.1001" stroke="#DB1F35" stroke-width="0.666667" stroke-linecap="round"/>
<path d="M16.5769 12.1639L21.4428 15.6077" stroke="#DB1F35" stroke-width="0.666667" stroke-linecap="round"/>
<path d="M11.431 8.8397L6.35541 5.24805" stroke="#DB1F35" stroke-width="0.666667" stroke-linecap="round"/>
<path d="M11.9815 12.1223L6.35541 16.0398" stroke="#DB1F35" stroke-width="0.666667" stroke-linecap="round"/>
<path fill-rule="evenodd" clip-rule="evenodd" d="M8 11.4H13.1429V15H14.8571V11.4H20V9.6H14.8571V6H13.1429V9.6H8V11.4Z" fill="#E6273E"/>
</g>
<rect x="38" width="58" height="22" rx="5" fill="#242C37"/>
<path d="M52.0312 15H53.3949L53.7486 12.8352H54.9418L55.1676 11.4716H53.9744L54.2472 9.80114H55.4403L55.6705 8.4375H54.473L54.8267 6.27273H53.4631L53.1094 8.4375H51.4048L51.7585 6.27273H50.3949L50.0412 8.4375H48.8523L48.6222 9.80114H49.8153L49.5426 11.4716H48.3494L48.1236 12.8352H49.3168L48.9631 15H50.3267L50.6804 12.8352H52.3849L52.0312 15ZM50.9062 11.4716L51.179 9.80114H52.8835L52.6108 11.4716H50.9062ZM57.8086 15H59.7262L60.8512 10.8835H60.9322L62.0572 15H63.979L65.756 8.45455H63.9237L62.9265 12.8267H62.8711L61.7972 8.45455H59.9947L58.9379 12.8523H58.8782L57.864 8.45455H56.0273L57.8086 15ZM69.5178 15.1278C71.5036 15.1278 72.7393 13.7685 72.7393 11.7528C72.7393 9.72443 71.5036 8.36932 69.5178 8.36932C67.532 8.36932 66.2962 9.72443 66.2962 11.7528C66.2962 13.7685 67.532 15.1278 69.5178 15.1278ZM69.5263 13.7216C68.6101 13.7216 68.1413 12.8821 68.1413 11.7401C68.1413 10.598 68.6101 9.75426 69.5263 9.75426C70.4254 9.75426 70.8942 10.598 70.8942 11.7401C70.8942 12.8821 70.4254 13.7216 69.5263 13.7216ZM73.9197 15H75.7351V11.2969C75.7351 10.4915 76.3232 9.9375 77.1243 9.9375C77.3757 9.9375 77.7209 9.98011 77.8913 10.0355V8.42472C77.7294 8.38636 77.5036 8.3608 77.3203 8.3608C76.5874 8.3608 75.9865 8.78693 75.7479 9.59659H75.6797V8.45455H73.9197V15ZM78.8299 15H80.6452V12.9205L81.1353 12.3622L82.9208 15H85.0472L82.4947 11.2884L84.9237 8.45455H82.8398L80.7433 10.9389H80.6452V6.27273H78.8299V15Z" fill="#DEE3EA"/>
<rect x="106" width="69" height="22" rx="5" fill="#242C37"/>
<path d="M120.031 15H121.395L121.749 12.8352H122.942L123.168 11.4716H121.974L122.247 9.80114H123.44L123.67 8.4375H122.473L122.827 6.27273H121.463L121.109 8.4375H119.405L119.759 6.27273H118.395L118.041 8.4375H116.852L116.622 9.80114H117.815L117.543 11.4716H116.349L116.124 12.8352H117.317L116.963 15H118.327L118.68 12.8352H120.385L120.031 15ZM118.906 11.4716L119.179 9.80114H120.884L120.611 11.4716H118.906ZM126.929 15.1065C127.986 15.1065 128.536 14.4972 128.787 13.9517H128.864V15H130.654V6.27273H128.843V9.55398H128.787C128.544 9.02131 128.02 8.36932 126.925 8.36932C125.489 8.36932 124.275 9.4858 124.275 11.7358C124.275 13.9261 125.438 15.1065 126.929 15.1065ZM127.505 13.6619C126.614 13.6619 126.128 12.8693 126.128 11.7273C126.128 10.5938 126.605 9.81392 127.505 9.81392C128.387 9.81392 128.881 10.5597 128.881 11.7273C128.881 12.8949 128.378 13.6619 127.505 13.6619ZM135.129 15.1278C136.749 15.1278 137.839 14.3395 138.095 13.125L136.416 13.0142C136.233 13.5128 135.764 13.7727 135.159 13.7727C134.251 13.7727 133.676 13.1719 133.676 12.196V12.1918H138.134V11.6932C138.134 9.46875 136.787 8.36932 135.057 8.36932C133.131 8.36932 131.882 9.73722 131.882 11.7571C131.882 13.8324 133.114 15.1278 135.129 15.1278ZM133.676 11.0668C133.714 10.321 134.281 9.72443 135.087 9.72443C135.875 9.72443 136.42 10.2869 136.425 11.0668H133.676ZM139.352 15H141.142V13.9517H141.223C141.474 14.4972 142.024 15.1065 143.081 15.1065C144.572 15.1065 145.736 13.9261 145.736 11.7358C145.736 9.4858 144.521 8.36932 143.085 8.36932C141.99 8.36932 141.466 9.02131 141.223 9.55398H141.168V6.27273H139.352V15ZM141.129 11.7273C141.129 10.5597 141.624 9.81392 142.506 9.81392C143.405 9.81392 143.882 10.5938 143.882 11.7273C143.882 12.8693 143.396 13.6619 142.506 13.6619C141.632 13.6619 141.129 12.8949 141.129 11.7273ZM148.814 15.1236C149.781 15.1236 150.407 14.7017 150.727 14.0923H150.778V15H152.5V10.5852C152.5 9.02557 151.179 8.36932 149.721 8.36932C148.153 8.36932 147.122 9.11932 146.87 10.3125L148.549 10.4489C148.673 10.0142 149.061 9.6946 149.713 9.6946C150.331 9.6946 150.684 10.0057 150.684 10.5426V10.5682C150.684 10.9901 150.237 11.0455 149.099 11.1562C147.804 11.2756 146.64 11.7102 146.64 13.1719C146.64 14.4673 147.565 15.1236 148.814 15.1236ZM149.333 13.8707C148.775 13.8707 148.375 13.6108 148.375 13.1122C148.375 12.6009 148.797 12.3494 149.436 12.2599C149.832 12.2045 150.48 12.1108 150.697 11.9659V12.6605C150.697 13.3466 150.13 13.8707 149.333 13.8707ZM157.39 8.45455H156.158V6.88636H154.343V8.45455H153.448V9.81818H154.343V13.2273C154.334 14.5099 155.208 15.1449 156.525 15.0895C156.993 15.0724 157.326 14.9787 157.509 14.919L157.223 13.5682C157.134 13.5852 156.942 13.6278 156.772 13.6278C156.409 13.6278 156.158 13.4915 156.158 12.9886V9.81818H157.39V8.45455ZM161.485 15.1278C163.104 15.1278 164.195 14.3395 164.451 13.125L162.772 13.0142C162.588 13.5128 162.12 13.7727 161.515 13.7727C160.607 13.7727 160.032 13.1719 160.032 12.196V12.1918H164.489V11.6932C164.489 9.46875 163.142 8.36932 161.412 8.36932C159.486 8.36932 158.238 9.73722 158.238 11.7571C158.238 13.8324 159.469 15.1278 161.485 15.1278ZM160.032 11.0668C160.07 10.321 160.637 9.72443 161.442 9.72443C162.23 9.72443 162.776 10.2869 162.78 11.0668H160.032Z" fill="#DEE3EA"/>
</svg>

