<svg width="20" height="21" viewBox="0 0 20 21" fill="none" style="vertical-align:-5" xmlns="http://www.w3.org/2000/svg">
<g clip-path="url(#clip0)">
<path fill-rule="evenodd" clip-rule="evenodd" d="M19.822 8.74467H10.212C10.212 9.74467 10.212 11.7427 10.205 12.7427H15.774C15.561 13.7417 14.804 15.1407 13.735 15.8457C13.734 15.8447 13.733 15.8516 13.731 15.8506C12.31 16.7886 10.434 17.0017 9.04099 16.7217C6.85799 16.2887 5.13099 14.7059 4.42899 12.6949C4.43299 12.6919 4.43599 12.6637 4.43899 12.6617C3.99999 11.4137 3.99999 9.74367 4.43899 8.74467C5.00399 6.90767 6.78398 5.23199 8.96898 4.77299C10.728 4.39999 12.712 4.80399 14.171 6.16899C14.365 5.97899 16.856 3.54667 17.043 3.34867C12.058 -1.16633 4.07699 0.422994 1.08999 6.25199L1.08399 6.26274C0.369882 7.64916 -0.00185575 9.18661 -0.000115992 10.7461C0.00162377 12.3057 0.376785 13.8418 1.09398 15.2266L1.08399 15.2349C1.74156 16.5021 2.65829 17.6166 3.77466 18.5064C4.89104 19.3962 6.18209 20.0415 7.56398 20.3999C10.574 21.1899 14.407 20.6497 16.974 18.3277L16.977 18.3306C19.152 16.3726 20.506 13.0347 19.822 8.74467Z" fill="#DEE3EA"/>
</g>
<defs>
<clipPath id="clip0">
<rect width="20" height="20" fill="white" transform="translate(0 0.740723)"/>
</clipPath>
</defs>
</svg>
