<svg width="16" height="16" viewBox="0 0 16 16" fill="none" xmlns="http://www.w3.org/2000/svg">
<path d="M12.8234 11.3369C12.218 11.3369 11.6527 11.5378 11.2491 11.9398L5.47711 8.60324C5.51753 8.40218 5.55794 8.24124 5.55794 8.04026C5.55794 7.8392 5.51753 7.67826 5.47711 7.47728L11.1687 4.18105C11.6125 4.58305 12.1777 4.82411 12.8234 4.82411C14.1553 4.82411 15.2453 3.7386 15.2453 2.41204C15.2453 1.08555 14.1553 0 12.8234 0C11.4915 0 10.4016 1.08555 10.4016 2.41207C10.4016 2.61309 10.4418 2.77407 10.4824 2.97505L4.79107 6.27128C4.34704 5.86924 3.78198 5.62822 3.13613 5.62822C1.80421 5.62822 0.7547 6.71373 0.7547 8.0403C0.7547 9.36682 1.8444 10.4524 3.17651 10.4524C3.82236 10.4524 4.38741 10.2113 4.83145 9.80928L10.5632 13.1459C10.5226 13.3065 10.4824 13.4675 10.4824 13.6684C10.4824 14.955 11.5317 16 12.8234 16C14.1151 16 15.1644 14.955 15.1644 13.6684C15.1644 12.3819 14.1151 11.3369 12.8234 11.3369Z" fill="#DEE3EA"/>
</svg>
