<svg width="67" height="16" viewBox="0 0 67 16" fill="none" xmlns="http://www.w3.org/2000/svg">
<rect width="31" height="16" rx="5" fill="#323D4D"/>
<path d="M15.5129 7.27344C15.3105 5.59375 14.0392 4.62784 12.3559 4.62784C10.4347 4.62784 8.96813 5.98438 8.96813 8.36364C8.96813 10.7358 10.4099 12.0994 12.3559 12.0994C14.2203 12.0994 15.346 10.8601 15.5129 9.52131L13.9575 9.5142C13.8119 10.2919 13.2011 10.7393 12.3808 10.7393C11.2764 10.7393 10.5271 9.91903 10.5271 8.36364C10.5271 6.85085 11.2657 5.98793 12.3914 5.98793C13.233 5.98793 13.8403 6.47443 13.9575 7.27344H15.5129ZM20.5608 6.81889H22.0345C22.0132 5.52273 20.9479 4.62784 19.3286 4.62784C17.7341 4.62784 16.5658 5.50852 16.5729 6.82955C16.5693 7.90199 17.3257 8.51634 18.5544 8.81108L19.3463 9.00994C20.1382 9.2017 20.5786 9.42898 20.5821 9.91903C20.5786 10.4517 20.0743 10.8139 19.2931 10.8139C18.4941 10.8139 17.9188 10.4446 17.8691 9.71662H16.3811C16.4202 11.2898 17.5459 12.103 19.3108 12.103C21.0864 12.103 22.1304 11.2543 22.134 9.92259C22.1304 8.71165 21.2178 8.06889 19.9536 7.7848L19.3002 7.62855C18.6681 7.48295 18.1389 7.24858 18.1496 6.72656C18.1496 6.25781 18.5651 5.91335 19.3179 5.91335C20.053 5.91335 20.504 6.24716 20.5608 6.81889Z" fill="#DEE3EA"/>
<rect x="36" width="31" height="16" rx="5" fill="#323D4D"/>
<path d="M51.7277 7.27344C51.5253 5.59375 50.254 4.62784 48.5708 4.62784C46.6496 4.62784 45.183 5.98438 45.183 8.36364C45.183 10.7358 46.6247 12.0994 48.5708 12.0994C50.4351 12.0994 51.5608 10.8601 51.7277 9.52131L50.1723 9.5142C50.0267 10.2919 49.4159 10.7393 48.5956 10.7393C47.4912 10.7393 46.7419 9.91903 46.7419 8.36364C46.7419 6.85085 47.4806 5.98793 48.6063 5.98793C49.4479 5.98793 50.0551 6.47443 50.1723 7.27344H51.7277ZM52.8303 12H57.7451V10.7322H54.368V8.99574H57.4788V7.72798H54.368V5.99503H57.7309V4.72727H52.8303V12Z" fill="#DEE3EA"/>
</svg>
