<svg width="20" height="17" viewBox="0 0 20 17" fill="none" style="vertical-align:-5" xmlns="http://www.w3.org/2000/svg">
<path fill-rule="evenodd" clip-rule="evenodd" d="M6.29 16.0014C13.837 16.0014 17.965 9.84528 17.965 4.50628C17.965 4.33128 17.965 4.15731 17.953 3.98431C18.7544 3.41401 19.4477 2.70545 20 1.89153C19.2505 2.21918 18.4565 2.43356 17.644 2.52825C18.497 2.02724 19.1383 1.23287 19.448 0.29339C18.6407 0.764408 17.7596 1.09571 16.842 1.27337C16.0892 0.491063 15.0599 0.0345959 13.9747 0.00188605C12.8895 -0.0308238 11.8346 0.36302 11.036 1.09857C10.514 1.5792 10.1291 2.18989 9.92052 2.8681C9.71196 3.5463 9.68728 4.26755 9.849 4.95843C8.22359 4.88084 6.63217 4.46526 5.17612 3.7387C3.72008 3.01214 2.43133 1.99031 1.392 0.738214C0.868251 1.62758 0.708074 2.68479 0.944877 3.68939C1.18168 4.69398 1.79718 5.56849 2.663 6.1303C2.01078 6.11179 1.37228 5.93883 0.8 5.62542V5.6762C0.801 7.5992 2.178 9.25516 4.092 9.63616C3.48779 9.79868 2.85463 9.82261 2.24 9.7055C2.777 11.3515 4.318 12.4782 6.073 12.5112C4.34672 13.8444 2.16567 14.4463 0 14.1865C1.88279 15.3739 4.06405 16.0022 6.29 15.9985" fill="#5D7290"/>
</svg>
